<?xml version="1.0" standalone="no"?>
<!DOCTYPE svg PUBLIC "-//W3C//DTD SVG 20010904//EN"
 "http://www.w3.org/TR/2001/REC-SVG-20010904/DTD/svg10.dtd">
<svg version="1.0" xmlns="http://www.w3.org/2000/svg"
 width="225.000000pt" height="225.000000pt" viewBox="0 0 225.000000 225.000000"
 preserveAspectRatio="xMidYMid meet">

<g transform="translate(0.000000,225.000000) scale(0.100000,-0.100000)"
fill="#000000" stroke="none">
<path d="M962 2040 c-71 -32 -81 -68 -82 -290 0 -204 -4 -220 -59 -257 -32
-22 -43 -23 -222 -23 -103 0 -199 -4 -214 -10 -44 -17 -59 -69 -51 -187 18
-286 122 -450 330 -524 91 -31 246 -52 295 -39 68 18 134 110 161 226 19 80
21 82 35 41 33 -96 92 -145 224 -186 177 -55 242 -119 249 -243 3 -40 -1 -80
-8 -98 -19 -45 -72 -86 -129 -100 -45 -10 -58 -10 -95 4 -50 19 -82 50 -91 87
-8 34 24 73 85 103 24 11 48 29 54 38 23 38 -64 86 -131 73 -52 -9 -135 -95
-152 -158 -26 -93 12 -202 87 -252 21 -14 68 -32 106 -42 60 -14 80 -15 155
-4 106 15 175 46 240 106 121 113 165 275 164 605 0 214 -26 593 -48 696 -29
135 -106 222 -228 260 -29 8 -108 19 -177 24 -69 4 -141 14 -161 23 -19 8 -56
38 -81 66 -69 80 -165 102 -256 61z m709 -809 c34 -34 38 -67 9 -76 -19 -6
-164 10 -181 21 -16 10 -10 34 16 59 19 20 34 25 75 25 44 0 56 -5 81 -29z"/>
<path d="M592 1754 c-138 -137 -208 -213 -192 -209 14 4 105 10 202 12 144 4
180 8 190 20 9 11 14 71 18 205 3 103 3 188 2 188 -2 0 -101 -97 -220 -216z"/>
</g>
</svg>
