<svg width="53" height="50" viewBox="0 0 53 50" fill="none" xmlns="http://www.w3.org/2000/svg">
<g clip-path="url(#clip0)">
<path d="M6.42072 13.9109L5.96899 20.3709L12.4289 20.8226L12.8807 14.3627L6.42072 13.9109Z" fill="#CCEED5"/>
<path d="M16.5605 17.9013L21.7229 26.8839L30.7055 21.7215L25.5431 12.7389L16.5605 17.9013Z" fill="#CCEED5"/>
<path d="M25.8968 29.2282L24.1006 38.4774L33.3498 40.2736L35.146 31.0244L25.8968 29.2282Z" fill="#CCEED5"/>
<path d="M18.1974 4.81631L17.5471 6.86389L19.5946 7.51419L20.245 5.46661L18.1974 4.81631Z" fill="#CCEED5"/>
<path d="M6.37055 8.22632L6.94678 9.1116L7.83201 8.53541L7.25578 7.65012L6.37055 8.22632Z" fill="#CCEED5"/>
<path d="M17.3181 0.590238L16.7039 1.44949L17.5632 2.06379L18.1774 1.20453L17.3181 0.590238Z" fill="#CCEED5"/>
<path d="M33.5361 16.1405L35.406 20.8404L40.106 18.9706L38.2361 14.2706L33.5361 16.1405Z" fill="#CCEED5"/>
<path d="M38.2045 38.6344L39.947 43.3782L44.6908 41.6356L42.9483 36.8918L38.2045 38.6344Z" fill="#CCEED5"/>
<path d="M43.9615 29.5151L45.2063 34.4131L50.1043 33.1682L48.8595 28.2702L43.9615 29.5151Z" fill="#CCEED5"/>
<path d="M3.83337 26.5863L3.93921 31.6389L8.99181 31.5331L8.88597 26.4805L3.83337 26.5863Z" fill="#CCEED5"/>
<path d="M42.9122 14.6041L41.594 19.4828L46.4728 20.801L47.791 15.9223L42.9122 14.6041Z" fill="#CCEED5"/>
<path d="M14.0733 27.8024L14.5588 30.8302L17.5867 30.3447L17.1011 27.3169L14.0733 27.8024Z" fill="#CCEED5"/>
<path d="M20.1544 36.4084L16.7253 37.9747L18.2917 41.4038L21.7207 39.8374L20.1544 36.4084Z" fill="#CCEED5"/>
<path d="M29.9745 4.93144L27.2129 2.3652L24.6467 5.12676L27.4083 7.69299L29.9745 4.93144Z" fill="#CCEED5"/>
<path d="M35.2655 1.28543L33.9072 0.0232239L32.645 1.38152L34.0033 2.64373L35.2655 1.28543Z" fill="#CCEED5"/>
<path d="M28.6993 47.7688L26.3987 43.2691L21.899 45.5697L24.1996 50.0694L28.6993 47.7688Z" fill="#CCEED5"/>
<path d="M38.5847 48.5039L37.198 45.7917L34.4859 47.1784L35.8725 49.8906L38.5847 48.5039Z" fill="#CCEED5"/>
<path d="M11.0158 36.5892L8.13721 34.865L6.41303 37.7436L9.29164 39.4678L11.0158 36.5892Z" fill="#CCEED5"/>
<path d="M52.9472 22.5089L51.2117 21.4693L50.1721 23.2049L51.9077 24.2444L52.9472 22.5089Z" fill="#CCEED5"/>
<path d="M44.7167 46.7554L43.6023 46.8412L43.688 47.9555L44.8024 47.8698L44.7167 46.7554Z" fill="#CCEED5"/>
<path d="M15.0837 42.271L12.7478 42.6455L13.1224 44.9814L15.4583 44.6069L15.0837 42.271Z" fill="#CCEED5"/>
<path d="M46.8608 8.42214L45.4517 8.6481L45.6776 10.0572L47.0867 9.83121L46.8608 8.42214Z" fill="#CCEED5"/>
<path d="M1.90179 34.7947L1.30884 33.4966L0.0107217 34.0896L0.603676 35.3877L1.90179 34.7947Z" fill="#CCEED5"/>
<path d="M17.7936 46.5781L17.593 47.991L19.006 48.1916L19.2066 46.7787L17.7936 46.5781Z" fill="#CCEED5"/>
<path d="M14.881 9.14588L11.6736 8.41776L10.9455 11.6252L14.1529 12.3533L14.881 9.14588Z" fill="#CCEED5"/>
<path d="M4.34874 19.5315L2.77246 19.1737L2.41463 20.75L3.99091 21.1078L4.34874 19.5315Z" fill="#CCEED5"/>
<path d="M38.8978 11.9387L36.7517 9.35925L34.1723 11.5053L36.3183 14.0848L38.8978 11.9387Z" fill="#CCEED5"/>
<path d="M9.48376 41.9107L7.75537 41.5183L7.36301 43.2467L9.09139 43.6391L9.48376 41.9107Z" fill="#CCEED5"/>
</g>
<defs>
<clipPath id="clip0">
<rect width="52.9054" height="50" fill="white"/>
</clipPath>
</defs>
</svg>
